<svg width="42" height="42" viewBox="0 0 42 42" fill="none" xmlns="http://www.w3.org/2000/svg">
<path d="M35.4318 1.31876L35.8229 0.927635C36.1173 0.633417 36.4667 0.400064 36.8513 0.2409C37.2359 0.0817361 37.648 -0.000121741 38.0643 1.35895e-07C38.4805 0.000122013 38.8926 0.0822213 39.2771 0.24161C39.6615 0.400999 40.0109 0.634557 40.3051 0.928948C40.5993 1.22334 40.8327 1.5728 40.9918 1.95737C41.151 2.34195 41.2328 2.7541 41.2327 3.17031C41.2326 3.58652 41.1505 3.99863 40.9911 4.38311C40.8317 4.76759 40.5982 5.11692 40.3038 5.41114L39.9126 5.79964C40.5817 6.55002 40.9384 7.52792 40.9096 8.53286C40.8808 9.5378 40.4687 10.4937 39.7578 11.2045L12.7413 38.2236C12.5724 38.3916 12.3609 38.5105 12.1296 38.5675L1.62964 41.1925C1.40991 41.2472 1.17976 41.2442 0.961561 41.1836C0.743363 41.1231 0.544541 41.0071 0.384422 40.847C0.224303 40.6869 0.108334 40.488 0.0477874 40.2698C-0.0127593 40.0516 -0.0158237 39.8215 0.0388921 39.6018L2.66389 29.1018C2.72133 28.8714 2.84017 28.6609 3.00777 28.4928L28.318 3.18251C28.0649 3.00435 27.7569 2.92139 27.4486 2.94829C27.1402 2.97519 26.8512 3.11021 26.6328 3.32951L17.9913 11.9736C17.8692 12.0957 17.7244 12.1925 17.5649 12.2585C17.4055 12.3246 17.2346 12.3585 17.062 12.3585C16.8894 12.3585 16.7186 12.3246 16.5591 12.2585C16.3997 12.1925 16.2548 12.0957 16.1328 11.9736C16.0107 11.8516 15.9139 11.7067 15.8479 11.5473C15.7819 11.3879 15.7479 11.217 15.7479 11.0444C15.7479 10.8718 15.7819 10.7009 15.8479 10.5415C15.9139 10.382 16.0107 10.2372 16.1328 10.1151L24.7795 1.47364C25.4908 0.7623 26.4474 0.35019 27.453 0.321878C28.4585 0.293566 29.4368 0.6512 30.187 1.32139C30.9083 0.676787 31.8416 0.320242 32.8089 0.319758C33.7762 0.319273 34.7099 0.674884 35.4318 1.31876V1.31876Z" fill="#0FFF50"/>
</svg>
